<svg xmlns="http://www.w3.org/2000/svg" viewBox="0 0 64 64" role="img" aria-labelledby="title">
  <title>Parkrun App</title>
  <defs>
    <linearGradient id="bg" x1="0" y1="0" x2="1" y2="1">
      <stop offset="0%" stop-color="#00a651"/>
      <stop offset="100%" stop-color="#007a3d"/>
    </linearGradient>
  </defs>
  <rect width="64" height="64" rx="14" fill="url(#bg)"/>

  <path d="M32 14l6 7h-4v5h-4v-5h-4z" fill="#ffffff"/>
  <rect x="30" y="20" width="4" height="20" rx="2" fill="#ffffff"/>
  <path d="M18 28h28" stroke="#ffffff" stroke-width="3.2" stroke-linecap="round"/>
  <path d="M21 29l-4 10" stroke="#ffffff" stroke-width="2.2" stroke-linecap="round"/>
  <path d="M43 29l4 10" stroke="#ffffff" stroke-width="2.2" stroke-linecap="round"/>
  <path d="M13 39h12" stroke="#ffffff" stroke-width="2.2" stroke-linecap="round"/>
  <path d="M39 39h12" stroke="#ffffff" stroke-width="2.2" stroke-linecap="round"/>

  <circle cx="21" cy="32" r="2.4" fill="#8cc63f"/>
  <path d="M20 35l-2 3" stroke="#8cc63f" stroke-width="2" stroke-linecap="round"/>
  <path d="M20.7 35.2l2.8 2" stroke="#8cc63f" stroke-width="2" stroke-linecap="round"/>
  <path d="M19.2 37.8l-2.1 2.5" stroke="#8cc63f" stroke-width="2" stroke-linecap="round"/>
  <path d="M22.2 37.3l2.2 2.8" stroke="#8cc63f" stroke-width="2" stroke-linecap="round"/>

  <circle cx="43" cy="31.5" r="2.9" fill="#fdbb30"/>
  <path d="M41.8 34.8c1.5 1 2.8 1.1 3.9.2" stroke="#fdbb30" stroke-width="2.1" stroke-linecap="round"/>
  <path d="M41.8 35.1l-2.3 2.7" stroke="#fdbb30" stroke-width="2.1" stroke-linecap="round"/>
  <path d="M45.2 35l2.4 3.2" stroke="#fdbb30" stroke-width="2.1" stroke-linecap="round"/>
  <path d="M42.7 36.6l-1.2 3.6" stroke="#fdbb30" stroke-width="2.1" stroke-linecap="round"/>
  <path d="M44.1 36.5l2 3.6" stroke="#fdbb30" stroke-width="2.1" stroke-linecap="round"/>

  <rect x="18" y="46" width="28" height="3.5" rx="1.75" fill="#ffffff" opacity="0.95"/>
</svg>